<svg  xmlns="http://www.w3.org/2000/svg" xml:space="preserve"   width="308.7612359841165"
   height="304.915625" data-id="lg_dwe0VCL5ZWJ4J1sLst" data-version="1" viewBox="0 0 1500 1500"><path fill="#fff" stroke="transparent" d="M0 0h1500v1500H0z"/><g data-padding="20"><g transform="translate(-295.555 -295.378)scale(1.36236)"><path fill="#c7f2de" d="M767.458 490.652a279.725 279.725 0 1 0 0 559.45 279.725 279.725 0 1 0 0-559.45"/><rect width="336.593" height="481.38" x="193.276" y="348.675" fill="none" rx="0" ry="0" transform="rotate(-13.3 1284.803 -1060.382)"/><path d="M779.198 607.443q-2.942-12.447 1.756-20.35 4.708-7.905 13.632-10.015 8.915-2.107 18.59 1.74l53.267 225.34q5.69 24.067 18.875 36.291 13.194 12.213 28.96 8.486 39.004-9.22 20.561-87.24-.168-2.58 3.773-3.512t6.307-.186q7.31 3.101 11.036 18.867 8.24 34.86-3.262 60.36-11.49 25.507-38.885 31.983-52.698 12.457-77.267-39.577-1.853 31.111-18.685 53.494-16.842 22.385-45.473 29.153-42.84 9.685-71.464-16.852-28.62-26.528-41.275-80.062l-31.098-131.556q-5.69-24.066-18.875-36.29-13.184-12.215-29.99-8.242t-23.788 19.865q-6.972 15.89 1.17 50.33 1.766 7.475 6.85 14.154-2.56 5.866-11.27 7.925-8.72 2.062-16.206-2.745-7.484-4.797-10.82-18.908-7.75-32.786 7.305-58.037 15.064-25.253 48.27-33.102 39.423-9.32 60.515 15.052 19.072 21.345 29.668 66.17l24.818 104.986q23.152 97.94 71.285 86.562 34.441-8.14 46.816-45.685 12.385-37.546.32-88.59Z"/></g><path fill="transparent" stroke="transparent" stroke-width="1.413" d="M355.091 350.146h789.818v799.708H355.09z"/></g></svg>